<?xml version="1.0" encoding="UTF-8"?>
<svg width="14px" height="9px" viewBox="0 0 14 9" version="1.1" xmlns="http://www.w3.org/2000/svg" xmlns:xlink="http://www.w3.org/1999/xlink">
    <!-- Generator: sketchtool 46.2 (44496) - http://www.bohemiancoding.com/sketch -->
    <title>18B891FB-0FC5-4EA4-B517-22C2D180574F</title>
    <desc>Created with sketchtool.</desc>
    <defs></defs>
    <g id="Symbols" stroke="none" stroke-width="1" fill="none" fill-rule="evenodd">
        <g id="ArrowDown" transform="translate(1.000000, 1.000000)" stroke="#717171" fill-rule="nonzero" fill="#717171">
            <path d="M8.40324236,-2.31952035 C8.65836241,-2.56015988 9.0600041,-2.56015988 9.31512415,-2.31952035 C9.56162528,-2.08701052 9.56162528,-1.70003613 9.31512415,-1.46806829 L4.69136056,2.89325234 L4.67363782,2.9091564 L4.67363782,2.9091564 C4.34734448,3.20196609 4.32020062,3.70384826 4.61301032,4.0301416 C4.6373501,4.05726471 4.66352877,4.08267952 4.69136056,4.10620568 L4.69136056,4.10620568 L9.31512415,8.45939659 C9.56162528,8.70003613 9.56162528,9.0875525 9.31512415,9.31952035 C9.0600041,9.56015988 8.65836241,9.56015988 8.40324236,9.31952035 L2.68487585,3.92572603 C2.43837472,3.69321621 2.43837472,3.30624181 2.68487585,3.07427397 L8.40324236,-2.31952035 Z" transform="translate(6.000000, 3.500000) scale(1, -1) rotate(90.000000) translate(-6.000000, -3.500000) "></path>
        </g>
    </g>
</svg>